<?xml version="1.0" encoding="utf-8"?>
<!-- Generator: Adobe Illustrator 19.0.0, SVG Export Plug-In . SVG Version: 6.00 Build 0)  -->
<svg version="1.1" id="图层_1" xmlns="http://www.w3.org/2000/svg" xmlns:xlink="http://www.w3.org/1999/xlink" x="0px" y="0px"
	 viewBox="-289 412.9 17 16" style="enable-background:new -289 412.9 17 16;" xml:space="preserve">
<g>
	<g transform="translate(1.000000, 0.000000)">
		<path d="M-274.2,417.2c0.9-0.9,0.8-2.5-0.2-3.5s-2.6-1.1-3.5-0.2l-1.2,1.2l3.8,3.8L-274.2,417.2L-274.2,417.2z"/>
		<path d="M-284,427.1l6.1-6.1l0.8,0.8l1.6-1.6l-5.3-5.3l-1.6,1.6l0.8,0.8l-6.1,6.1l-1.7,4.7l0.8,0.8L-284,427.1L-284,427.1z
			 M-280.5,418.3l1.6,1.6l-6.3,6.3l-2.6,1l1-2.6L-280.5,418.3L-280.5,418.3z"/>
	</g>
</g>
</svg>
